<mxfile host="Electron" modified="2025-02-09T19:04:44.754Z" agent="Mozilla/5.0 (Windows NT 10.0; Win64; x64) AppleWebKit/537.36 (KHTML, like Gecko) draw.io/24.6.1 Chrome/124.0.6367.207 Electron/30.0.6 Safari/537.36" etag="wFneDZXoVmEup3AEyLoj" version="24.6.1" type="device">
  <diagram name="Page-1" id="iWMJX5Yz5mDMI-_E2S_U">
    <mxGraphModel dx="1883" dy="622" grid="1" gridSize="10" guides="1" tooltips="1" connect="1" arrows="1" fold="1" page="1" pageScale="1" pageWidth="850" pageHeight="1100" math="0" shadow="0">
      <root>
        <mxCell id="0" />
        <mxCell id="1" parent="0" />
        <mxCell id="Z4rDdyE8zaAI3xBsL5B2-1" value="LV" style="rounded=0;whiteSpace=wrap;html=1;" vertex="1" parent="1">
          <mxGeometry x="-815" y="280" width="120" height="60" as="geometry" />
        </mxCell>
        <mxCell id="Z4rDdyE8zaAI3xBsL5B2-4" value="HV" style="rounded=0;whiteSpace=wrap;html=1;" vertex="1" parent="1">
          <mxGeometry x="125" y="280.00000000000006" width="120" height="60" as="geometry" />
        </mxCell>
        <mxCell id="Z4rDdyE8zaAI3xBsL5B2-6" style="edgeStyle=orthogonalEdgeStyle;rounded=0;orthogonalLoop=1;jettySize=auto;html=1;exitX=0.5;exitY=1;exitDx=0;exitDy=0;exitPerimeter=0;" edge="1" parent="1" source="Z4rDdyE8zaAI3xBsL5B2-31" target="Z4rDdyE8zaAI3xBsL5B2-4">
          <mxGeometry relative="1" as="geometry">
            <mxPoint x="185" y="210" as="sourcePoint" />
          </mxGeometry>
        </mxCell>
        <mxCell id="Z4rDdyE8zaAI3xBsL5B2-7" value="MV" style="rounded=0;whiteSpace=wrap;html=1;" vertex="1" parent="1">
          <mxGeometry x="-340" y="680" width="120" height="60" as="geometry" />
        </mxCell>
        <mxCell id="Z4rDdyE8zaAI3xBsL5B2-12" value="" style="group;movable=1;resizable=1;rotatable=1;deletable=1;editable=1;locked=0;connectable=1;fillColor=#f8cecc;strokeColor=default;shadow=1;" vertex="1" connectable="0" parent="1">
          <mxGeometry x="115.00000000000006" y="20" width="140" height="60" as="geometry" />
        </mxCell>
        <mxCell id="Z4rDdyE8zaAI3xBsL5B2-13" value="" style="shape=process;whiteSpace=wrap;html=1;backgroundOutline=1;movable=1;resizable=1;rotatable=1;deletable=1;editable=1;locked=0;connectable=1;fillColor=#f8cecc;strokeColor=#000000;" vertex="1" parent="Z4rDdyE8zaAI3xBsL5B2-12">
          <mxGeometry width="140" height="60" as="geometry" />
        </mxCell>
        <mxCell id="Z4rDdyE8zaAI3xBsL5B2-14" value="Wood" style="shape=partialRectangle;whiteSpace=wrap;html=1;top=0;bottom=0;fillColor=#f8cecc;movable=1;resizable=1;rotatable=1;deletable=1;editable=1;locked=0;connectable=1;strokeColor=default;" vertex="1" parent="Z4rDdyE8zaAI3xBsL5B2-12">
          <mxGeometry x="8.235294117647058" width="123.52941176470587" height="60" as="geometry" />
        </mxCell>
        <mxCell id="Z4rDdyE8zaAI3xBsL5B2-49" style="edgeStyle=orthogonalEdgeStyle;rounded=0;orthogonalLoop=1;jettySize=auto;html=1;entryX=0.5;entryY=0;entryDx=0;entryDy=0;" edge="1" parent="1" source="Z4rDdyE8zaAI3xBsL5B2-17" target="Z4rDdyE8zaAI3xBsL5B2-42">
          <mxGeometry relative="1" as="geometry" />
        </mxCell>
        <mxCell id="Z4rDdyE8zaAI3xBsL5B2-17" value="Steam Boiler" style="shape=stencil(tZTbbsMgDIafhtuJgybldsq296Cpu6BSQMDa7e3nhEQq6SDTlERRItv4828BJqINvXRAOO2JeCWcM0rxi/ZtYcvgoIvJeZVeyYOGFAnR2zPc1DFODGV68CoOUfFG6AuuGV7RdtYYhChrQha5iyNMKoO59CvBpvLfmeWQf4EIfhKZvIS//x379LwPmO2kN8fO6jfXux04V8z22rjNwOz/WNGip3S4RXuQ3fnD209z/FUMaK1cgJUjv7yPy/taavWktO6sth7N9B/zCBcnfJqm0lFBNzKth0pDQ8k0FCq69u16tbyTw7R6CMzhi73eSWO5Nl4tPiO0MmVEs6If/QWFld7GtIe9Gb1pyo+OHw==);whiteSpace=wrap;html=1;points=[[0,0.5,0,0,0],[0.5,0,0,0,0],[0.5,1,0,0,0],[1,0.5,0,0,0]];shadow=1;" vertex="1" parent="1">
          <mxGeometry x="-170" y="130" width="170" height="80" as="geometry" />
        </mxCell>
        <mxCell id="Z4rDdyE8zaAI3xBsL5B2-19" style="edgeStyle=orthogonalEdgeStyle;rounded=0;orthogonalLoop=1;jettySize=auto;html=1;entryX=0.5;entryY=0;entryDx=0;entryDy=0;" edge="1" parent="1" source="Z4rDdyE8zaAI3xBsL5B2-18" target="Z4rDdyE8zaAI3xBsL5B2-1">
          <mxGeometry relative="1" as="geometry" />
        </mxCell>
        <mxCell id="Z4rDdyE8zaAI3xBsL5B2-18" value="Steam Solar Panels" style="shape=stencil(tZTbbsMgDIafhtuJgybldsq296Cpu6BSQMDa7e3nhEQq6SDTlERRItv4828BJqINvXRAOO2JeCWcM0rxi/ZtYcvgoIvJeZVeyYOGFAnR2zPc1DFODGV68CoOUfFG6AuuGV7RdtYYhChrQha5iyNMKoO59CvBpvLfmeWQf4EIfhKZvIS//x379LwPmO2kN8fO6jfXux04V8z22rjNwOz/WNGip3S4RXuQ3fnD209z/FUMaK1cgJUjv7yPy/taavWktO6sth7N9B/zCBcnfJqm0lFBNzKth0pDQ8k0FCq69u16tbyTw7R6CMzhi73eSWO5Nl4tPiO0MmVEs6If/QWFld7GtIe9Gb1pyo+OHw==);whiteSpace=wrap;html=1;points=[[0,0.5,0,0,0],[0.5,0,0,0,0],[0.5,1,0,0,0],[1,0.5,0,0,0]];shadow=1;" vertex="1" parent="1">
          <mxGeometry x="-840" y="130" width="170" height="80" as="geometry" />
        </mxCell>
        <mxCell id="Z4rDdyE8zaAI3xBsL5B2-25" style="edgeStyle=orthogonalEdgeStyle;rounded=0;orthogonalLoop=1;jettySize=auto;html=1;entryX=0.5;entryY=0;entryDx=0;entryDy=0;entryPerimeter=0;exitX=0.5;exitY=1;exitDx=0;exitDy=0;" edge="1" parent="1" source="Z4rDdyE8zaAI3xBsL5B2-14" target="Z4rDdyE8zaAI3xBsL5B2-31">
          <mxGeometry relative="1" as="geometry">
            <mxPoint x="363.2352941176473" y="120.05882352941194" as="sourcePoint" />
            <mxPoint x="-530" y="-30" as="targetPoint" />
          </mxGeometry>
        </mxCell>
        <mxCell id="Z4rDdyE8zaAI3xBsL5B2-26" value="" style="group;movable=1;resizable=1;rotatable=1;deletable=1;editable=1;locked=0;connectable=1;fillColor=#f8cecc;strokeColor=default;shadow=1;" vertex="1" connectable="0" parent="1">
          <mxGeometry x="-155" y="20" width="140" height="60" as="geometry" />
        </mxCell>
        <mxCell id="Z4rDdyE8zaAI3xBsL5B2-27" value="" style="shape=process;whiteSpace=wrap;html=1;backgroundOutline=1;movable=1;resizable=1;rotatable=1;deletable=1;editable=1;locked=0;connectable=1;fillColor=#f8cecc;strokeColor=#000000;" vertex="1" parent="Z4rDdyE8zaAI3xBsL5B2-26">
          <mxGeometry width="140" height="60" as="geometry" />
        </mxCell>
        <mxCell id="Z4rDdyE8zaAI3xBsL5B2-28" value="Coal" style="shape=partialRectangle;whiteSpace=wrap;html=1;top=0;bottom=0;fillColor=#f8cecc;movable=1;resizable=1;rotatable=1;deletable=1;editable=1;locked=0;connectable=1;strokeColor=default;" vertex="1" parent="Z4rDdyE8zaAI3xBsL5B2-26">
          <mxGeometry x="8.235294117647058" width="123.52941176470587" height="60" as="geometry" />
        </mxCell>
        <mxCell id="Z4rDdyE8zaAI3xBsL5B2-30" style="edgeStyle=orthogonalEdgeStyle;rounded=0;orthogonalLoop=1;jettySize=auto;html=1;entryX=0.5;entryY=0;entryDx=0;entryDy=0;entryPerimeter=0;" edge="1" parent="1" source="Z4rDdyE8zaAI3xBsL5B2-28" target="Z4rDdyE8zaAI3xBsL5B2-17">
          <mxGeometry relative="1" as="geometry" />
        </mxCell>
        <mxCell id="Z4rDdyE8zaAI3xBsL5B2-31" value="Benzene" style="shape=stencil(tZTbbsMgDIafhtuJgybldsq296Cpu6BSQMDa7e3nhEQq6SDTlERRItv4828BJqINvXRAOO2JeCWcM0rxi/ZtYcvgoIvJeZVeyYOGFAnR2zPc1DFODGV68CoOUfFG6AuuGV7RdtYYhChrQha5iyNMKoO59CvBpvLfmeWQf4EIfhKZvIS//x379LwPmO2kN8fO6jfXux04V8z22rjNwOz/WNGip3S4RXuQ3fnD209z/FUMaK1cgJUjv7yPy/taavWktO6sth7N9B/zCBcnfJqm0lFBNzKth0pDQ8k0FCq69u16tbyTw7R6CMzhi73eSWO5Nl4tPiO0MmVEs6If/QWFld7GtIe9Gb1pyo+OHw==);whiteSpace=wrap;html=1;points=[[0,0.5,0,0,0],[0.5,0,0,0,0],[0.5,1,0,0,0],[1,0.5,0,0,0]];shadow=1;" vertex="1" parent="1">
          <mxGeometry x="100" y="130" width="170" height="80" as="geometry" />
        </mxCell>
        <mxCell id="Z4rDdyE8zaAI3xBsL5B2-32" value="EBFs&lt;br&gt;(Manual)" style="rounded=0;whiteSpace=wrap;html=1;" vertex="1" parent="1">
          <mxGeometry x="-195" y="680" width="120" height="60" as="geometry" />
        </mxCell>
        <mxCell id="Z4rDdyE8zaAI3xBsL5B2-36" style="edgeStyle=orthogonalEdgeStyle;rounded=0;orthogonalLoop=1;jettySize=auto;html=1;entryX=0.5;entryY=0;entryDx=0;entryDy=0;" edge="1" parent="1" source="Z4rDdyE8zaAI3xBsL5B2-34" target="Z4rDdyE8zaAI3xBsL5B2-7">
          <mxGeometry relative="1" as="geometry" />
        </mxCell>
        <mxCell id="Z4rDdyE8zaAI3xBsL5B2-37" style="edgeStyle=orthogonalEdgeStyle;rounded=0;orthogonalLoop=1;jettySize=auto;html=1;entryX=0.5;entryY=0;entryDx=0;entryDy=0;" edge="1" parent="1" source="Z4rDdyE8zaAI3xBsL5B2-34" target="Z4rDdyE8zaAI3xBsL5B2-32">
          <mxGeometry relative="1" as="geometry" />
        </mxCell>
        <mxCell id="Z4rDdyE8zaAI3xBsL5B2-59" style="edgeStyle=orthogonalEdgeStyle;rounded=0;orthogonalLoop=1;jettySize=auto;html=1;entryX=0.75;entryY=0;entryDx=0;entryDy=0;" edge="1" parent="1" source="Z4rDdyE8zaAI3xBsL5B2-34" target="Z4rDdyE8zaAI3xBsL5B2-45">
          <mxGeometry relative="1" as="geometry" />
        </mxCell>
        <mxCell id="Z4rDdyE8zaAI3xBsL5B2-34" value="Cetane Boosted Diesel" style="shape=stencil(tZTbbsMgDIafhtuJgybldsq296Cpu6BSQMDa7e3nhEQq6SDTlERRItv4828BJqINvXRAOO2JeCWcM0rxi/ZtYcvgoIvJeZVeyYOGFAnR2zPc1DFODGV68CoOUfFG6AuuGV7RdtYYhChrQha5iyNMKoO59CvBpvLfmeWQf4EIfhKZvIS//x379LwPmO2kN8fO6jfXux04V8z22rjNwOz/WNGip3S4RXuQ3fnD209z/FUMaK1cgJUjv7yPy/taavWktO6sth7N9B/zCBcnfJqm0lFBNzKth0pDQ8k0FCq69u16tbyTw7R6CMzhi73eSWO5Nl4tPiO0MmVEs6If/QWFld7GtIe9Gb1pyo+OHw==);whiteSpace=wrap;html=1;points=[[0,0.5,0,0,0],[0.5,0,0,0,0],[0.5,1,0,0,0],[1,0.5,0,0,0]];shadow=1;" vertex="1" parent="1">
          <mxGeometry x="-305" y="510" width="170" height="80" as="geometry" />
        </mxCell>
        <mxCell id="Z4rDdyE8zaAI3xBsL5B2-44" style="edgeStyle=orthogonalEdgeStyle;rounded=0;orthogonalLoop=1;jettySize=auto;html=1;exitX=0.5;exitY=1;exitDx=0;exitDy=0;entryX=0.5;entryY=0;entryDx=0;entryDy=0;" edge="1" parent="1" source="Z4rDdyE8zaAI3xBsL5B2-42" target="Z4rDdyE8zaAI3xBsL5B2-55">
          <mxGeometry relative="1" as="geometry">
            <Array as="points">
              <mxPoint x="-85" y="390" />
              <mxPoint x="-85" y="390" />
            </Array>
          </mxGeometry>
        </mxCell>
        <mxCell id="Z4rDdyE8zaAI3xBsL5B2-58" style="edgeStyle=orthogonalEdgeStyle;rounded=0;orthogonalLoop=1;jettySize=auto;html=1;entryX=0.5;entryY=0;entryDx=0;entryDy=0;" edge="1" parent="1" source="Z4rDdyE8zaAI3xBsL5B2-42" target="Z4rDdyE8zaAI3xBsL5B2-45">
          <mxGeometry relative="1" as="geometry" />
        </mxCell>
        <mxCell id="Z4rDdyE8zaAI3xBsL5B2-42" value="Oil Processing" style="rounded=0;whiteSpace=wrap;html=1;" vertex="1" parent="1">
          <mxGeometry x="-145" y="280" width="120" height="60" as="geometry" />
        </mxCell>
        <mxCell id="Z4rDdyE8zaAI3xBsL5B2-45" value="Oil-related&lt;br&gt;Distillation" style="rounded=0;whiteSpace=wrap;html=1;" vertex="1" parent="1">
          <mxGeometry x="-500" y="680" width="120" height="60" as="geometry" />
        </mxCell>
        <mxCell id="Z4rDdyE8zaAI3xBsL5B2-53" value="" style="group;movable=1;resizable=1;rotatable=1;deletable=1;editable=1;locked=0;connectable=1;fillColor=#f8cecc;strokeColor=default;shadow=1;" vertex="1" connectable="0" parent="1">
          <mxGeometry x="-155" y="410" width="140" height="60" as="geometry" />
        </mxCell>
        <mxCell id="Z4rDdyE8zaAI3xBsL5B2-54" value="" style="shape=process;whiteSpace=wrap;html=1;backgroundOutline=1;movable=1;resizable=1;rotatable=1;deletable=1;editable=1;locked=0;connectable=1;fillColor=#f8cecc;strokeColor=#000000;" vertex="1" parent="Z4rDdyE8zaAI3xBsL5B2-53">
          <mxGeometry width="140" height="60" as="geometry" />
        </mxCell>
        <mxCell id="Z4rDdyE8zaAI3xBsL5B2-55" value="Diesel" style="shape=partialRectangle;whiteSpace=wrap;html=1;top=0;bottom=0;fillColor=#f8cecc;movable=1;resizable=1;rotatable=1;deletable=1;editable=1;locked=0;connectable=1;strokeColor=default;" vertex="1" parent="Z4rDdyE8zaAI3xBsL5B2-53">
          <mxGeometry x="8.235294117647058" width="123.52941176470587" height="60" as="geometry" />
        </mxCell>
        <mxCell id="Z4rDdyE8zaAI3xBsL5B2-57" style="edgeStyle=orthogonalEdgeStyle;rounded=0;orthogonalLoop=1;jettySize=auto;html=1;exitX=0.5;exitY=1;exitDx=0;exitDy=0;entryX=1;entryY=0.5;entryDx=0;entryDy=0;entryPerimeter=0;" edge="1" parent="1" source="Z4rDdyE8zaAI3xBsL5B2-55" target="Z4rDdyE8zaAI3xBsL5B2-34">
          <mxGeometry relative="1" as="geometry" />
        </mxCell>
        <mxCell id="Z4rDdyE8zaAI3xBsL5B2-60" value="" style="group;movable=1;resizable=1;rotatable=1;deletable=1;editable=1;locked=0;connectable=1;fillColor=#f8cecc;strokeColor=default;shadow=1;" vertex="1" connectable="0" parent="1">
          <mxGeometry x="-540" y="20" width="140" height="60" as="geometry" />
        </mxCell>
        <mxCell id="Z4rDdyE8zaAI3xBsL5B2-61" value="" style="shape=process;whiteSpace=wrap;html=1;backgroundOutline=1;movable=1;resizable=1;rotatable=1;deletable=1;editable=1;locked=0;connectable=1;fillColor=#f8cecc;strokeColor=#000000;" vertex="1" parent="Z4rDdyE8zaAI3xBsL5B2-60">
          <mxGeometry width="140" height="60" as="geometry" />
        </mxCell>
        <mxCell id="Z4rDdyE8zaAI3xBsL5B2-62" value="Organics" style="shape=partialRectangle;whiteSpace=wrap;html=1;top=0;bottom=0;fillColor=#f8cecc;movable=1;resizable=1;rotatable=1;deletable=1;editable=1;locked=0;connectable=1;strokeColor=default;" vertex="1" parent="Z4rDdyE8zaAI3xBsL5B2-60">
          <mxGeometry x="8.235294117647058" width="123.52941176470587" height="60" as="geometry" />
        </mxCell>
        <mxCell id="Z4rDdyE8zaAI3xBsL5B2-67" style="edgeStyle=orthogonalEdgeStyle;rounded=0;orthogonalLoop=1;jettySize=auto;html=1;exitX=0.5;exitY=1;exitDx=0;exitDy=0;exitPerimeter=0;entryX=0.25;entryY=0;entryDx=0;entryDy=0;" edge="1" parent="1" source="Z4rDdyE8zaAI3xBsL5B2-63" target="Z4rDdyE8zaAI3xBsL5B2-45">
          <mxGeometry relative="1" as="geometry" />
        </mxCell>
        <mxCell id="Z4rDdyE8zaAI3xBsL5B2-63" value="Bio Diesel" style="shape=stencil(tZTbbsMgDIafhtuJgybldsq296Cpu6BSQMDa7e3nhEQq6SDTlERRItv4828BJqINvXRAOO2JeCWcM0rxi/ZtYcvgoIvJeZVeyYOGFAnR2zPc1DFODGV68CoOUfFG6AuuGV7RdtYYhChrQha5iyNMKoO59CvBpvLfmeWQf4EIfhKZvIS//x379LwPmO2kN8fO6jfXux04V8z22rjNwOz/WNGip3S4RXuQ3fnD209z/FUMaK1cgJUjv7yPy/taavWktO6sth7N9B/zCBcnfJqm0lFBNzKth0pDQ8k0FCq69u16tbyTw7R6CMzhi73eSWO5Nl4tPiO0MmVEs6If/QWFld7GtIe9Gb1pyo+OHw==);whiteSpace=wrap;html=1;points=[[0,0.5,0,0,0],[0.5,0,0,0,0],[0.5,1,0,0,0],[1,0.5,0,0,0]];shadow=1;" vertex="1" parent="1">
          <mxGeometry x="-555" y="130" width="170" height="80" as="geometry" />
        </mxCell>
        <mxCell id="Z4rDdyE8zaAI3xBsL5B2-64" style="edgeStyle=orthogonalEdgeStyle;rounded=0;orthogonalLoop=1;jettySize=auto;html=1;entryX=0.5;entryY=0;entryDx=0;entryDy=0;entryPerimeter=0;" edge="1" parent="1" source="Z4rDdyE8zaAI3xBsL5B2-62" target="Z4rDdyE8zaAI3xBsL5B2-63">
          <mxGeometry relative="1" as="geometry" />
        </mxCell>
        <mxCell id="Z4rDdyE8zaAI3xBsL5B2-66" style="edgeStyle=orthogonalEdgeStyle;rounded=0;orthogonalLoop=1;jettySize=auto;html=1;entryX=1;entryY=0.5;entryDx=0;entryDy=0;" edge="1" parent="1" source="Z4rDdyE8zaAI3xBsL5B2-14" target="Z4rDdyE8zaAI3xBsL5B2-27">
          <mxGeometry relative="1" as="geometry" />
        </mxCell>
      </root>
    </mxGraphModel>
  </diagram>
</mxfile>
